<svg xmlns="http://www.w3.org/2000/svg" viewBox="0 0 820 620" role="img" aria-label="EDS inner text seal">
  <defs>
    <linearGradient id="bgK" x1="0" y1="0" x2="1" y2="1">
      <stop offset="0%" stop-color="#0d2f28"/>
      <stop offset="100%" stop-color="#071914"/>
    </linearGradient>
    <linearGradient id="shieldK" x1="0" y1="0" x2="1" y2="1">
      <stop offset="0%" stop-color="#17453c"/>
      <stop offset="100%" stop-color="#0d2d26"/>
    </linearGradient>
    <linearGradient id="lineK" x1="0" y1="0" x2="1" y2="1">
      <stop offset="0%" stop-color="#ffd36d"/>
      <stop offset="100%" stop-color="#f3a33a"/>
    </linearGradient>
  </defs>
  <rect x="28" y="28" width="764" height="564" rx="54" fill="url(#bgK)"/>
  <path d="M410 86 L548 142 V280 C548 366 492 443 410 482 C328 443 272 366 272 280 V142 Z" fill="url(#shieldK)" stroke="url(#lineK)" stroke-width="14"/>
  <circle cx="410" cy="246" r="118" fill="none" stroke="rgba(255,211,109,0.18)" stroke-width="10"/>
  <path d="M324 188 H432" stroke="#f7fcfb" stroke-width="18" stroke-linecap="round"/>
  <path d="M324 242 H412" stroke="#f7fcfb" stroke-width="18" stroke-linecap="round"/>
  <path d="M324 296 H432" stroke="#f7fcfb" stroke-width="18" stroke-linecap="round"/>
  <path d="M438 186 V300" stroke="#ffd680" stroke-width="15" stroke-linecap="round"/>
  <path d="M438 186 Q494 186 494 243 Q494 300 438 300" fill="none" stroke="#ffd680" stroke-width="15" stroke-linecap="round"/>
  <path d="M322 344 C356 314, 392 310, 432 326 C464 338, 494 334, 522 308" fill="none" stroke="#e9a53a" stroke-width="14" stroke-linecap="round"/>
  <text x="410" y="374" text-anchor="middle" font-size="17" font-family="Trebuchet MS, Segoe UI, sans-serif" letter-spacing="5" fill="#ffd680">SOLUCOES</text>
  <text x="410" y="398" text-anchor="middle" font-size="17" font-family="Trebuchet MS, Segoe UI, sans-serif" letter-spacing="5" fill="#ffd680">INTELIGENTES</text>
  <text x="410" y="422" text-anchor="middle" font-size="13" font-family="Trebuchet MS, Segoe UI, sans-serif" letter-spacing="8" fill="#f3a33a">EDS</text>
</svg>
