<svg xmlns="http://www.w3.org/2000/svg" viewBox="0 0 512 512" role="img" aria-label="EDS Shield Refined">
  <defs>
    <linearGradient id="bgRef" x1="0" y1="0" x2="1" y2="1">
      <stop offset="0%" stop-color="#0d2c25"/>
      <stop offset="100%" stop-color="#071a15"/>
    </linearGradient>
    <linearGradient id="glowRef" x1="0" y1="0" x2="1" y2="1">
      <stop offset="0%" stop-color="#53d1b6"/>
      <stop offset="100%" stop-color="#13a385"/>
    </linearGradient>
    <filter id="softGlow" x="-40%" y="-40%" width="180%" height="180%">
      <feGaussianBlur stdDeviation="4" result="blur"/>
      <feMerge>
        <feMergeNode in="blur"/>
        <feMergeNode in="SourceGraphic"/>
      </feMerge>
    </filter>
  </defs>

  <rect x="24" y="24" width="464" height="464" rx="98" fill="url(#bgRef)"/>

  <path d="M256 82 L382 134 V252 C382 329 331 398 256 432 C181 398 130 329 130 252 V134 Z"
        fill="#0f342c" stroke="url(#glowRef)" stroke-width="14"/>

  <path d="M186 172 H300" stroke="#e9faf5" stroke-width="18" stroke-linecap="round"/>
  <path d="M186 224 H280" stroke="#e9faf5" stroke-width="18" stroke-linecap="round"/>
  <path d="M186 276 H300" stroke="#e9faf5" stroke-width="18" stroke-linecap="round"/>

  <path d="M304 170 V280" stroke="#9be9d7" stroke-width="15" stroke-linecap="round"/>
  <path d="M304 170 Q354 170 354 225 Q354 280 304 280" fill="none" stroke="#9be9d7" stroke-width="15" stroke-linecap="round"/>

  <path d="M186 338 C208 364, 232 378, 256 378 C280 378, 304 364, 326 338"
        fill="none" stroke="#13a385" stroke-width="14" stroke-linecap="round" filter="url(#softGlow)"/>

  <circle cx="256" cy="111" r="8" fill="#53d1b6"/>
</svg>
