<svg xmlns="http://www.w3.org/2000/svg" width="512" height="512" viewBox="0 0 512 512">
  <defs>
    <linearGradient id="appBg512" x1="0" y1="0" x2="1" y2="1">
      <stop offset="0%" stop-color="#0d2f28"/>
      <stop offset="100%" stop-color="#071914"/>
    </linearGradient>
    <linearGradient id="appShield512" x1="0" y1="0" x2="1" y2="1">
      <stop offset="0%" stop-color="#17483f"/>
      <stop offset="100%" stop-color="#0d2c25"/>
    </linearGradient>
    <linearGradient id="appLine512" x1="0" y1="0" x2="1" y2="1">
      <stop offset="0%" stop-color="#ffcf62"/>
      <stop offset="100%" stop-color="#ef9a2f"/>
    </linearGradient>
  </defs>
  <rect x="20" y="20" width="472" height="472" rx="92" fill="url(#appBg512)"/>
  <path d="M256 84 L382 136 V254 C382 330 331 399 256 432 C181 399 130 330 130 254 V136 Z" fill="url(#appShield512)" stroke="url(#appLine512)" stroke-width="14"/>
  <path d="M170 184 H280" stroke="#f7fcfb" stroke-width="18" stroke-linecap="round"/>
  <path d="M170 236 H256" stroke="#f7fcfb" stroke-width="18" stroke-linecap="round"/>
  <path d="M170 288 H280" stroke="#f7fcfb" stroke-width="18" stroke-linecap="round"/>
  <path d="M286 182 V294" stroke="#ffd680" stroke-width="15" stroke-linecap="round"/>
  <path d="M286 182 Q340 182 340 238 Q340 294 286 294" fill="none" stroke="#ffd680" stroke-width="15" stroke-linecap="round"/>
  <path d="M170 334 C202 306, 238 304, 278 320 C308 332, 336 328, 362 304" fill="none" stroke="#ef9a2f" stroke-width="14" stroke-linecap="round"/>
</svg>
